<?xml version="1.0" encoding="utf-8"?>
<!-- Generator: Adobe Illustrator 26.0.1, SVG Export Plug-In . SVG Version: 6.00 Build 0)  -->
<svg version="1.1" id="Layer_1" xmlns="http://www.w3.org/2000/svg" xmlns:xlink="http://www.w3.org/1999/xlink" x="0px" y="0px"
	 viewBox="0 0 80 80" style="enable-background:new 0 0 80 80;" xml:space="preserve">
<style type="text/css">
	.st0{fill:#471854;}
	.st1{fill:#350449;}
	.st2{fill:#676767;}
	.st3{fill:#FFFFFF;}
	.st4{fill:#B7B6B8;}
	.st5{fill:#C2C2C4;}
	.st6{fill:#EDF0F1;}
	.st7{fill:#919191;}
	.st8{fill:#660164;}
	.st9{fill:#CCCCCC;}
	.st10{fill:#FF507D;}
	.st11{fill:#D23C69;}
	.st12{fill:#707487;}
	.st13{fill:#464655;}
	.st14{fill:#5B5D6E;}
	.st15{fill:#C7CFE2;}
	.st16{fill:#AFB9D2;}
</style>
<circle class="st0" cx="40" cy="39.9" r="39.5"/>
<ellipse class="st1" cx="40" cy="65.5" rx="28.1" ry="2.2"/>
<path class="st2" d="M10.7,10.8h58.6c1.9,0,3.5,1.6,3.5,3.5v36.1H7.2V14.3C7.2,12.4,8.8,10.8,10.7,10.8L10.7,10.8L10.7,10.8z"/>
<path class="st3" d="M9.6,48h60.8V14.3c0-0.6-0.5-1.1-1.1-1.1H10.7c-0.6,0-1.1,0.5-1.1,1.1V48L9.6,48z"/>
<path class="st3" d="M72.8,50.4v3.8c0,1.9-1.7,3.5-3.9,3.5H11.1c-2.1,0-3.9-1.6-3.9-3.5v-3.8L72.8,50.4L72.8,50.4z"/>
<circle class="st4" cx="40" cy="53.9" r="1.2"/>
<path class="st5" d="M47.6,63.2l5.6,1.8H26.9l4.5-1.8v-5.5h16.2V63.2L47.6,63.2z"/>
<path class="st6" d="M31.4,63.2h16.2l5.6,1.8v0.8H40H26.9V65L31.4,63.2z"/>
<path class="st7" d="M31.4,57.7h16.2v5.5L31.4,57.7z"/>
<g>
	<rect x="11.9" y="30.5" class="st8" width="26.3" height="10.5"/>
	<g>
		<rect x="31.1" y="21.7" class="st9" width="7" height="6.1"/>
		<rect x="11.9" y="21.7" class="st9" width="7" height="6.1"/>
		<rect x="21.5" y="21.7" class="st9" width="7" height="6.1"/>
	</g>
</g>
<g>
	<path class="st10" d="M45.4,32.2c0.4-5.2,4.8-9.3,10.1-9.3s9.7,4.1,10.1,9.3h0.8C66.1,26.5,61.3,22,55.6,22S45,26.5,44.6,32.2H45.4
		z"/>
	<path class="st11" d="M58.5,22.5h-5.9c-1,0.3-1.9,0.7-2.8,1.2h1.8c1.2-0.5,2.6-0.8,4-0.8s2.8,0.3,4,0.8h1.8
		C60.4,23.1,59.5,22.7,58.5,22.5z"/>
	<g>
		<path class="st12" d="M45.6,34h-1.2c-0.2,0-0.4-0.2-0.4-0.4v-1.2c0-0.2,0.2-0.4,0.4-0.4h1.2c0.2,0,0.4,0.2,0.4,0.4v1.2
			C46,33.8,45.8,34,45.6,34z M44.8,33.2h0.4v-0.4h-0.4V33.2z"/>
		<path class="st12" d="M66.3,32.8v0.4h-0.4v-0.4H66.3 M66.7,32h-1.2c-0.2,0-0.4,0.2-0.4,0.4v1.2c0,0.2,0.2,0.4,0.4,0.4h1.2
			c0.2,0,0.4-0.2,0.4-0.4v-1.2C67.1,32.2,66.9,32,66.7,32L66.7,32z"/>
	</g>
	<rect x="45" y="22" class="st13" width="21.1" height="0.8"/>
	<g>
		<path class="st14" d="M56.2,23.5h-1.2c-0.2,0-0.4-0.2-0.4-0.4v-1.2c0-0.2,0.2-0.4,0.4-0.4h1.2c0.2,0,0.4,0.2,0.4,0.4v1.2
			C56.6,23.3,56.4,23.5,56.2,23.5z"/>
		<circle class="st14" cx="45" cy="22.5" r="1"/>
		<circle class="st14" cx="66.1" cy="22.5" r="1"/>
	</g>
	<path class="st15" d="M56.5,24.5L56.5,24.5c-0.3,0-0.5,0.2-0.5,0.4V33c0,0.2,0.1,0.3,0.2,0.4c0.5,0.3,0.9,0.9,0.8,1.5
		c-0.1,0.5-0.5,1-1.1,1.1c-0.9,0.2-1.8-0.5-1.8-1.4c0-0.6,0.3-1,0.8-1.3c0.1-0.1,0.2-0.2,0.2-0.4v-8.1c0-0.2-0.2-0.4-0.4-0.4h-0.1
		c-0.2,0-0.3,0.1-0.4,0.3l-2.7,9.5c-0.1,0.2,0,0.4,0.1,0.6c0.4,0.7,1.3,2.4,2.3,4.6h3.2c0.9-2.2,1.9-3.9,2.3-4.6
		c0.1-0.2,0.1-0.4,0.1-0.6l-2.7-9.5C56.8,24.6,56.6,24.5,56.5,24.5z"/>
	<path class="st16" d="M56,24.9V33c0,0.2,0.1,0.3,0.2,0.4c0.4,0.2,0.7,0.6,0.8,1.1l-0.6-9.9C56.1,24.5,56,24.7,56,24.9z"/>
	<path class="st10" d="M57.6,41.5h-4.1c-0.2,0-0.4-0.2-0.4-0.4v-1.2c0-0.2,0.2-0.4,0.4-0.4h4.1c0.2,0,0.4,0.2,0.4,0.4v1.2
		C58,41.4,57.8,41.5,57.6,41.5z"/>
	<path class="st11" d="M54.7,41.1v-1.2c0-0.2,0.2-0.4,0.4-0.4h-1.6c-0.2,0-0.4,0.2-0.4,0.4v1.2c0,0.2,0.2,0.4,0.4,0.4h1.6
		C54.9,41.5,54.7,41.4,54.7,41.1z"/>
	<path class="st16" d="M54.8,38.4c-0.4-1.2-0.9-2.6-1.1-3.3c-0.1-0.3-0.1-0.6-0.1-0.9l1.2-9.7h-0.1c-0.2,0-0.3,0.1-0.4,0.3l-2.7,9.5
		c-0.1,0.2,0,0.4,0.1,0.6c0.4,0.7,1.3,2.4,2.3,4.6h3.2c0.1-0.3,0.2-0.6,0.4-0.8h-2.3C55,38.7,54.9,38.6,54.8,38.4z"/>
</g>
</svg>
