<?xml version="1.0" encoding="utf-8"?>
<!-- Generator: Adobe Illustrator 26.0.1, SVG Export Plug-In . SVG Version: 6.00 Build 0)  -->
<svg version="1.1" id="Layer_1" xmlns="http://www.w3.org/2000/svg" xmlns:xlink="http://www.w3.org/1999/xlink" x="0px" y="0px"
	 viewBox="0 0 80 80" style="enable-background:new 0 0 80 80;" xml:space="preserve">
<style type="text/css">
	.st0{fill:#FFE000;}
	.st1{fill:#E2B80A;}
	.st2{fill:#676767;}
	.st3{fill:#FFFFFF;}
	.st4{fill:#B7B6B8;}
	.st5{fill:#C2C2C4;}
	.st6{fill:#EDF0F1;}
	.st7{fill:#919191;}
	.st8{fill:#EFF2FA;}
	.st9{fill:#C3E678;}
	.st10{fill:#EBF5AA;}
	.st11{fill:#D7DEED;}
	.st12{opacity:0.97;}
	.st13{fill:#AFB9D2;}
	.st14{fill:#FFD782;}
	.st15{fill:#B4E1FA;}
	.st16{fill:#C7CFE2;}
	.st17{fill:#8F96AC;}
	.st18{fill:#274C77;}
	.st19{fill:#F5DD90;}
	.st20{fill:#6096BA;}
	.st21{fill:#F76C5E;}
	.st22{fill:#CFD8DC;}
	.st23{fill:#78909C;}
	.st24{fill:#37474F;}
	.st25{fill:#B0BEC5;}
	.st26{fill:#90A4AE;}
	.st27{fill:#F44336;}
	.st28{fill:#EEEEEE;}
	.st29{fill:#E5E5E5;}
	.st30{fill:#F5F5F5;}
	.st31{fill:#428BC1;}
	.st32{fill:#212528;}
	.st33{fill:#51575B;}
	.st34{fill:#CECECE;}
	.st35{fill:#FFE100;}
	.st36{fill:#FFA800;}
	.st37{fill:#63D3FD;}
	.st38{fill:#00DA6C;}
</style>
<circle class="st0" cx="40" cy="39.9" r="39.5"/>
<ellipse class="st1" cx="40" cy="65.5" rx="28.1" ry="2.2"/>
<path class="st2" d="M10.7,10.8h58.6c1.9,0,3.5,1.6,3.5,3.5v36.1H7.2V14.3C7.2,12.4,8.8,10.8,10.7,10.8L10.7,10.8L10.7,10.8z"/>
<path class="st3" d="M9.6,48h60.8V14.3c0-0.6-0.5-1.1-1.1-1.1H10.7c-0.6,0-1.1,0.5-1.1,1.1L9.6,48L9.6,48z"/>
<path class="st3" d="M72.8,50.4v3.8c0,1.9-1.7,3.5-3.9,3.5H11.1c-2.1,0-3.9-1.6-3.9-3.5v-3.8H72.8L72.8,50.4z"/>
<circle class="st4" cx="40" cy="53.9" r="1.2"/>
<path class="st5" d="M47.6,63.2l5.6,1.8H26.9l4.5-1.8v-5.5h16.2V63.2L47.6,63.2z"/>
<path class="st6" d="M31.4,63.2h16.2l5.6,1.8v0.8H40H26.9V65L31.4,63.2z"/>
<path class="st7" d="M31.4,57.7h16.2v5.5L31.4,57.7z"/>
<g>
	<path class="st8" d="M24.2,44.1H12.7c-0.2,0-0.4-0.2-0.4-0.4v-9.4c0-0.2,0.2-0.4,0.4-0.4h11.5c0.2,0,0.4,0.2,0.4,0.4v9.4
		C24.7,43.9,24.5,44.1,24.2,44.1z"/>
	<path class="st9" d="M12.3,35.1h12.3v-0.9c0-0.2-0.2-0.4-0.4-0.4H12.7c-0.2,0-0.4,0.2-0.4,0.4V35.1z"/>
	<g>
		<path class="st10" d="M14.7,34.6H13c-0.1,0-0.2-0.1-0.2-0.2l0,0c0-0.1,0.1-0.2,0.2-0.2h1.7c0.1,0,0.2,0.1,0.2,0.2l0,0
			C14.9,34.5,14.8,34.6,14.7,34.6z"/>
		<path class="st10" d="M15.9,34.6h-0.4c-0.1,0-0.2-0.1-0.2-0.2l0,0c0-0.1,0.1-0.2,0.2-0.2h0.4c0.1,0,0.2,0.1,0.2,0.2l0,0
			C16.2,34.5,16.1,34.6,15.9,34.6z"/>
		<path class="st10" d="M24,34.6h-0.4c-0.1,0-0.2-0.1-0.2-0.2l0,0c0-0.1,0.1-0.2,0.2-0.2H24c0.1,0,0.2,0.1,0.2,0.2l0,0
			C24.2,34.5,24.1,34.6,24,34.6z"/>
		<path class="st10" d="M22.7,34.6h-0.4c-0.1,0-0.2-0.1-0.2-0.2l0,0c0-0.1,0.1-0.2,0.2-0.2h0.4c0.1,0,0.2,0.1,0.2,0.2l0,0
			C23,34.5,22.9,34.6,22.7,34.6z"/>
	</g>
	<rect x="12.3" y="35.1" class="st11" width="12.3" height="1.3"/>
	<g class="st12">
		<path class="st13" d="M13.6,36H13c-0.1,0-0.2-0.1-0.2-0.2l0,0c0-0.1,0.1-0.2,0.2-0.2h0.6c0.1,0,0.2,0.1,0.2,0.2l0,0
			C13.8,35.9,13.7,36,13.6,36z"/>
	</g>
	<path class="st14" d="M15.1,36h-0.6c-0.1,0-0.2-0.1-0.2-0.2l0,0c0-0.1,0.1-0.2,0.2-0.2h0.6c0.1,0,0.2,0.1,0.2,0.2l0,0
		C15.3,35.9,15.2,36,15.1,36z"/>
	<g>
		<path class="st15" d="M16.2,36h-0.2c-0.1,0-0.2-0.1-0.2-0.2l0,0c0-0.1,0.1-0.2,0.2-0.2h0.2c0.1,0,0.2,0.1,0.2,0.2l0,0
			C16.4,35.9,16.3,36,16.2,36z"/>
		<path class="st15" d="M17.2,36H17c-0.1,0-0.2-0.1-0.2-0.2l0,0c0-0.1,0.1-0.2,0.2-0.2h0.2c0.1,0,0.2,0.1,0.2,0.2l0,0
			C17.4,35.9,17.3,36,17.2,36z"/>
	</g>
	<path class="st16" d="M18.7,36h-0.6c-0.1,0-0.2-0.1-0.2-0.2l0,0c0-0.1,0.1-0.2,0.2-0.2h0.6c0.1,0,0.2,0.1,0.2,0.2l0,0
		C18.9,35.9,18.8,36,18.7,36z"/>
	<g>
		<path class="st8" d="M20,36h-0.4c-0.1,0-0.2-0.1-0.2-0.2l0,0c0-0.1,0.1-0.2,0.2-0.2H20c0.1,0,0.2,0.1,0.2,0.2l0,0
			C20.2,35.9,20.1,36,20,36z"/>
		<path class="st8" d="M21.3,36h-0.4c-0.1,0-0.2-0.1-0.2-0.2l0,0c0-0.1,0.1-0.2,0.2-0.2h0.4c0.1,0,0.2,0.1,0.2,0.2l0,0
			C21.5,35.9,21.4,36,21.3,36z"/>
	</g>
	<g>
		<path class="st16" d="M22.7,36h-0.6c-0.1,0-0.2-0.1-0.2-0.2l0,0c0-0.1,0.1-0.2,0.2-0.2h0.6c0.1,0,0.2,0.1,0.2,0.2l0,0
			C23,35.9,22.9,36,22.7,36z"/>
		<path class="st16" d="M24,36h-0.4c-0.1,0-0.2-0.1-0.2-0.2l0,0c0-0.1,0.1-0.2,0.2-0.2H24c0.1,0,0.2,0.1,0.2,0.2l0,0
			C24.2,35.9,24.1,36,24,36z"/>
		<rect x="12.3" y="36.4" class="st16" width="12.3" height="0.4"/>
	</g>
	<g>
		<path class="st17" d="M18.9,38h-0.9c-0.1,0-0.2-0.1-0.2-0.2v-0.2c0-0.1,0.1-0.2,0.2-0.2h0.9c0.1,0,0.2,0.1,0.2,0.2v0.2
			C19.1,37.9,19,38,18.9,38z"/>
		<path class="st17" d="M15.5,38h-0.9c-0.1,0-0.2-0.1-0.2-0.2v-0.2c0-0.1,0.1-0.2,0.2-0.2h0.9c0.1,0,0.2,0.1,0.2,0.2v0.2
			C15.7,37.9,15.6,38,15.5,38z"/>
	</g>
	<path class="st11" d="M13.8,38H13c-0.1,0-0.2-0.1-0.2-0.2v-0.2c0-0.1,0.1-0.2,0.2-0.2h0.9c0.1,0,0.2,0.1,0.2,0.2v0.2
		C14,37.9,13.9,38,13.8,38z"/>
	<g>
		<path class="st17" d="M17.2,38h-0.9c-0.1,0-0.2-0.1-0.2-0.2v-0.2c0-0.1,0.1-0.2,0.2-0.2h0.9c0.1,0,0.2,0.1,0.2,0.2v0.2
			C17.4,37.9,17.3,38,17.2,38z"/>
		<path class="st17" d="M22.3,38h-0.9c-0.1,0-0.2-0.1-0.2-0.2v-0.2c0-0.1,0.1-0.2,0.2-0.2h0.9c0.1,0,0.2,0.1,0.2,0.2v0.2
			C22.5,37.9,22.4,38,22.3,38z"/>
		<path class="st17" d="M20.6,38h-0.9c-0.1,0-0.2-0.1-0.2-0.2v-0.2c0-0.1,0.1-0.2,0.2-0.2h0.9c0.1,0,0.2,0.1,0.2,0.2v0.2
			C20.8,37.9,20.7,38,20.6,38z"/>
		<path class="st17" d="M24,38h-0.9c-0.1,0-0.2-0.1-0.2-0.2v-0.2c0-0.1,0.1-0.2,0.2-0.2H24c0.1,0,0.2,0.1,0.2,0.2v0.2
			C24.2,37.9,24.1,38,24,38z"/>
	</g>
	<g>
		<path class="st11" d="M18.9,39.1h-0.9c-0.1,0-0.2-0.1-0.2-0.2v-0.2c0-0.1,0.1-0.2,0.2-0.2h0.9c0.1,0,0.2,0.1,0.2,0.2v0.2
			C19.1,39,19,39.1,18.9,39.1z"/>
		<path class="st11" d="M15.5,39.1h-0.9c-0.1,0-0.2-0.1-0.2-0.2v-0.2c0-0.1,0.1-0.2,0.2-0.2h0.9c0.1,0,0.2,0.1,0.2,0.2v0.2
			C15.7,39,15.6,39.1,15.5,39.1z"/>
	</g>
	<path class="st9" d="M13.8,39.1H13c-0.1,0-0.2-0.1-0.2-0.2v-0.2c0-0.1,0.1-0.2,0.2-0.2h0.9c0.1,0,0.2,0.1,0.2,0.2v0.2
		C14,39,13.9,39.1,13.8,39.1z"/>
	<g>
		<path class="st11" d="M17.2,39.1h-0.9c-0.1,0-0.2-0.1-0.2-0.2v-0.2c0-0.1,0.1-0.2,0.2-0.2h0.9c0.1,0,0.2,0.1,0.2,0.2v0.2
			C17.4,39,17.3,39.1,17.2,39.1z"/>
		<path class="st11" d="M22.3,39.1h-0.9c-0.1,0-0.2-0.1-0.2-0.2v-0.2c0-0.1,0.1-0.2,0.2-0.2h0.9c0.1,0,0.2,0.1,0.2,0.2v0.2
			C22.5,39,22.4,39.1,22.3,39.1z"/>
		<path class="st11" d="M20.6,39.1h-0.9c-0.1,0-0.2-0.1-0.2-0.2v-0.2c0-0.1,0.1-0.2,0.2-0.2h0.9c0.1,0,0.2,0.1,0.2,0.2v0.2
			C20.8,39,20.7,39.1,20.6,39.1z"/>
		<path class="st11" d="M24,39.1h-0.9c-0.1,0-0.2-0.1-0.2-0.2v-0.2c0-0.1,0.1-0.2,0.2-0.2H24c0.1,0,0.2,0.1,0.2,0.2v0.2
			C24.2,39,24.1,39.1,24,39.1z"/>
		<path class="st11" d="M18.9,40.2h-0.9c-0.1,0-0.2-0.1-0.2-0.2v-0.2c0-0.1,0.1-0.2,0.2-0.2h0.9c0.1,0,0.2,0.1,0.2,0.2V40
			C19.1,40.1,19,40.2,18.9,40.2z"/>
		<path class="st11" d="M15.5,40.2h-0.9c-0.1,0-0.2-0.1-0.2-0.2v-0.2c0-0.1,0.1-0.2,0.2-0.2h0.9c0.1,0,0.2,0.1,0.2,0.2V40
			C15.7,40.1,15.6,40.2,15.5,40.2z"/>
	</g>
	<path class="st9" d="M13.8,40.2H13c-0.1,0-0.2-0.1-0.2-0.2v-0.2c0-0.1,0.1-0.2,0.2-0.2h0.9c0.1,0,0.2,0.1,0.2,0.2V40
		C14,40.1,13.9,40.2,13.8,40.2z"/>
	<g>
		<path class="st11" d="M17.2,40.2h-0.9c-0.1,0-0.2-0.1-0.2-0.2v-0.2c0-0.1,0.1-0.2,0.2-0.2h0.9c0.1,0,0.2,0.1,0.2,0.2V40
			C17.4,40.1,17.3,40.2,17.2,40.2z"/>
		<path class="st11" d="M22.3,40.2h-0.9c-0.1,0-0.2-0.1-0.2-0.2v-0.2c0-0.1,0.1-0.2,0.2-0.2h0.9c0.1,0,0.2,0.1,0.2,0.2V40
			C22.5,40.1,22.4,40.2,22.3,40.2z"/>
		<path class="st11" d="M20.6,40.2h-0.9c-0.1,0-0.2-0.1-0.2-0.2v-0.2c0-0.1,0.1-0.2,0.2-0.2h0.9c0.1,0,0.2,0.1,0.2,0.2V40
			C20.8,40.1,20.7,40.2,20.6,40.2z"/>
		<path class="st11" d="M24,40.2h-0.9c-0.1,0-0.2-0.1-0.2-0.2v-0.2c0-0.1,0.1-0.2,0.2-0.2H24c0.1,0,0.2,0.1,0.2,0.2V40
			C24.2,40.1,24.1,40.2,24,40.2z"/>
		<path class="st11" d="M18.9,41.4h-0.9c-0.1,0-0.2-0.1-0.2-0.2v-0.2c0-0.1,0.1-0.2,0.2-0.2h0.9c0.1,0,0.2,0.1,0.2,0.2v0.2
			C19.1,41.3,19,41.4,18.9,41.4z"/>
		<path class="st11" d="M15.5,41.4h-0.9c-0.1,0-0.2-0.1-0.2-0.2v-0.2c0-0.1,0.1-0.2,0.2-0.2h0.9c0.1,0,0.2,0.1,0.2,0.2v0.2
			C15.7,41.3,15.6,41.4,15.5,41.4z"/>
	</g>
	<path class="st9" d="M13.8,41.4H13c-0.1,0-0.2-0.1-0.2-0.2v-0.2c0-0.1,0.1-0.2,0.2-0.2h0.9c0.1,0,0.2,0.1,0.2,0.2v0.2
		C14,41.3,13.9,41.4,13.8,41.4z"/>
	<g>
		<path class="st11" d="M17.2,41.4h-0.9c-0.1,0-0.2-0.1-0.2-0.2v-0.2c0-0.1,0.1-0.2,0.2-0.2h0.9c0.1,0,0.2,0.1,0.2,0.2v0.2
			C17.4,41.3,17.3,41.4,17.2,41.4z"/>
		<path class="st11" d="M22.3,41.4h-0.9c-0.1,0-0.2-0.1-0.2-0.2v-0.2c0-0.1,0.1-0.2,0.2-0.2h0.9c0.1,0,0.2,0.1,0.2,0.2v0.2
			C22.5,41.3,22.4,41.4,22.3,41.4z"/>
		<path class="st11" d="M20.6,41.4h-0.9c-0.1,0-0.2-0.1-0.2-0.2v-0.2c0-0.1,0.1-0.2,0.2-0.2h0.9c0.1,0,0.2,0.1,0.2,0.2v0.2
			C20.8,41.3,20.7,41.4,20.6,41.4z"/>
		<path class="st11" d="M24,41.4h-0.9c-0.1,0-0.2-0.1-0.2-0.2v-0.2c0-0.1,0.1-0.2,0.2-0.2H24c0.1,0,0.2,0.1,0.2,0.2v0.2
			C24.2,41.3,24.1,41.4,24,41.4z"/>
		<path class="st11" d="M18.9,42.5h-0.9c-0.1,0-0.2-0.1-0.2-0.2V42c0-0.1,0.1-0.2,0.2-0.2h0.9c0.1,0,0.2,0.1,0.2,0.2v0.2
			C19.1,42.4,19,42.5,18.9,42.5z"/>
		<path class="st11" d="M15.5,42.5h-0.9c-0.1,0-0.2-0.1-0.2-0.2V42c0-0.1,0.1-0.2,0.2-0.2h0.9c0.1,0,0.2,0.1,0.2,0.2v0.2
			C15.7,42.4,15.6,42.5,15.5,42.5z"/>
	</g>
	<path class="st9" d="M13.8,42.5H13c-0.1,0-0.2-0.1-0.2-0.2V42c0-0.1,0.1-0.2,0.2-0.2h0.9c0.1,0,0.2,0.1,0.2,0.2v0.2
		C14,42.4,13.9,42.5,13.8,42.5z"/>
	<g>
		<path class="st11" d="M17.2,42.5h-0.9c-0.1,0-0.2-0.1-0.2-0.2V42c0-0.1,0.1-0.2,0.2-0.2h0.9c0.1,0,0.2,0.1,0.2,0.2v0.2
			C17.4,42.4,17.3,42.5,17.2,42.5z"/>
		<path class="st11" d="M22.3,42.5h-0.9c-0.1,0-0.2-0.1-0.2-0.2V42c0-0.1,0.1-0.2,0.2-0.2h0.9c0.1,0,0.2,0.1,0.2,0.2v0.2
			C22.5,42.4,22.4,42.5,22.3,42.5z"/>
		<path class="st11" d="M20.6,42.5h-0.9c-0.1,0-0.2-0.1-0.2-0.2V42c0-0.1,0.1-0.2,0.2-0.2h0.9c0.1,0,0.2,0.1,0.2,0.2v0.2
			C20.8,42.4,20.7,42.5,20.6,42.5z"/>
		<path class="st11" d="M24,42.5h-0.9c-0.1,0-0.2-0.1-0.2-0.2V42c0-0.1,0.1-0.2,0.2-0.2H24c0.1,0,0.2,0.1,0.2,0.2v0.2
			C24.2,42.4,24.1,42.5,24,42.5z"/>
		<path class="st11" d="M18.9,43.6h-0.9c-0.1,0-0.2-0.1-0.2-0.2v-0.2c0-0.1,0.1-0.2,0.2-0.2h0.9c0.1,0,0.2,0.1,0.2,0.2v0.2
			C19.1,43.5,19,43.6,18.9,43.6z"/>
		<path class="st11" d="M15.5,43.6h-0.9c-0.1,0-0.2-0.1-0.2-0.2v-0.2c0-0.1,0.1-0.2,0.2-0.2h0.9c0.1,0,0.2,0.1,0.2,0.2v0.2
			C15.7,43.5,15.6,43.6,15.5,43.6z"/>
	</g>
	<path class="st9" d="M13.8,43.6H13c-0.1,0-0.2-0.1-0.2-0.2v-0.2c0-0.1,0.1-0.2,0.2-0.2h0.9c0.1,0,0.2,0.1,0.2,0.2v0.2
		C14,43.5,13.9,43.6,13.8,43.6z"/>
	<g>
		<path class="st11" d="M17.2,43.6h-0.9c-0.1,0-0.2-0.1-0.2-0.2v-0.2c0-0.1,0.1-0.2,0.2-0.2h0.9c0.1,0,0.2,0.1,0.2,0.2v0.2
			C17.4,43.5,17.3,43.6,17.2,43.6z"/>
		<path class="st11" d="M22.3,43.6h-0.9c-0.1,0-0.2-0.1-0.2-0.2v-0.2c0-0.1,0.1-0.2,0.2-0.2h0.9c0.1,0,0.2,0.1,0.2,0.2v0.2
			C22.5,43.5,22.4,43.6,22.3,43.6z"/>
		<path class="st11" d="M20.6,43.6h-0.9c-0.1,0-0.2-0.1-0.2-0.2v-0.2c0-0.1,0.1-0.2,0.2-0.2h0.9c0.1,0,0.2,0.1,0.2,0.2v0.2
			C20.8,43.5,20.7,43.6,20.6,43.6z"/>
		<path class="st11" d="M24,43.6h-0.9c-0.1,0-0.2-0.1-0.2-0.2v-0.2c0-0.1,0.1-0.2,0.2-0.2H24c0.1,0,0.2,0.1,0.2,0.2v0.2
			C24.2,43.5,24.1,43.6,24,43.6z"/>
	</g>
</g>
<g>
	<path class="st18" d="M21.3,24.2c0-0.2,0.1-0.4,0.2-0.6c-0.1-0.5-0.3-0.9-0.6-1.3c-0.2,0-0.4-0.1-0.5-0.3c-0.1-0.1-0.2-0.3-0.3-0.5
		c-0.4-0.3-0.8-0.5-1.3-0.6c-0.2,0.1-0.3,0.2-0.6,0.2c-0.2,0-0.4-0.1-0.6-0.2c-0.5,0.1-0.9,0.3-1.3,0.6c0,0.2-0.1,0.4-0.3,0.5
		c-0.1,0.1-0.3,0.2-0.5,0.3c-0.3,0.4-0.5,0.8-0.6,1.3c0.1,0.2,0.2,0.3,0.2,0.6c0,0.2-0.1,0.4-0.2,0.6c0.1,0.5,0.3,0.9,0.6,1.3
		c0.2,0,0.4,0.1,0.5,0.3c0.1,0.1,0.2,0.3,0.3,0.5c0.4,0.3,0.8,0.5,1.3,0.6c0.2-0.1,0.3-0.2,0.6-0.2s0.4,0.1,0.6,0.2
		c0.5-0.1,0.9-0.3,1.3-0.6c0-0.2,0.1-0.4,0.3-0.5c0.1-0.1,0.3-0.2,0.5-0.3c0.3-0.4,0.5-0.8,0.6-1.3C21.4,24.6,21.3,24.4,21.3,24.2z"
		/>
	<circle class="st19" cx="18.3" cy="24.2" r="2.1"/>
	<path class="st20" d="M12.3,24.2c0-3.3,2.7-6,6-6v0.9c-2.8,0-5.1,2.3-5.1,5.1"/>
	<polygon class="st21" points="12.7,25.6 11.8,24.2 13.7,24.2 	"/>
	<path class="st20" d="M21.3,29.4c-2.9,1.7-6.5,0.7-8.2-2.2l0.8-0.5c1.4,2.4,4.5,3.3,6.9,1.9"/>
	<polygon class="st21" points="22.2,28.3 21.5,29.8 20.6,28.2 	"/>
	<path class="st20" d="M21.3,19c2.9,1.7,3.9,5.3,2.2,8.2l-0.8-0.5c1.4-2.4,0.6-5.5-1.9-6.9"/>
	<polygon class="st21" points="19.8,18.7 21.5,18.6 20.6,20.2 	"/>
</g>
<g transform="translate(-.02439032 .12195114) scale(.29268)">
	<path class="st22" d="M101.4,97.6V76.4h35.7v21.3c0,2.3-2,4.3-4.5,4.3h-26.8C103.4,101.9,101.4,100,101.4,97.6z"/>
	<path class="st23" d="M137.1,72.1v6.4h-35.7v-6.4c0-2.3,2-4.3,4.5-4.3h26.8C135.1,67.9,137.1,69.8,137.1,72.1z"/>
	<g>
		<ellipse class="st24" cx="129.3" cy="72.1" rx="1" ry="0.9"/>
		<ellipse class="st24" cx="110.4" cy="72.1" rx="1" ry="0.9"/>
	</g>
	<path class="st25" d="M129.3,65.8c-1.2,0-2.2,1-2.2,2.1v4.3c0,1.2,1,2.1,2.2,2.1c1.2,0,2.2-1,2.2-2.1v-4.3
		C131.6,66.7,130.6,65.8,129.3,65.8z M110.4,65.8c-1.2,0-2.2,1-2.2,2.1v4.3c0,1.2,1,2.1,2.2,2.1s2.2-1,2.2-2.1v-4.3
		C112.6,66.7,111.6,65.8,110.4,65.8z"/>
	<path class="st26" d="M123.8,91.3h4.5v4.3h-4.5V91.3z M117.1,91.3h4.5v4.3h-4.5V91.3z M110.4,91.3h4.5v4.3h-4.5V91.3z M123.8,84.9
		h4.5v4.3h-4.5V84.9z M117.1,84.9h4.5v4.3h-4.5V84.9z M110.4,84.9h4.5v4.3h-4.5V84.9z"/>
	<ellipse class="st27" cx="105.9" cy="71.1" rx="3.9" ry="3.7"/>
	<ellipse class="st28" cx="105.9" cy="71.1" rx="2.9" ry="2.8"/>
	<path d="M104.8,63.6h2.2v7.4h-2.2V63.6z"/>
	<path d="M110.9,74.4l-1.5,1.4l-4.3-4.1l1.5-1.4L110.9,74.4z"/>
	<ellipse cx="105.9" cy="71.1" rx="0.5" ry="0.5"/>
</g>
<g>
	<path class="st29" d="M35.9,39.1c-0.3-0.1-0.5-0.1-0.5-0.3c0-0.1,0.2-0.2,0.5-0.3c1.7-0.4,2.3-1.6,2.3-3.6h-6.5
		c0,2,0.5,3.1,2.3,3.6c0.3,0.1,0.5,0.1,0.5,0.3s-0.2,0.2-0.5,0.3c-1.7,0.4-2.3,1.6-2.3,3.6h6.5C38.1,40.7,37.6,39.5,35.9,39.1"/>
	<path class="st30" d="M35.6,39.1c-0.2-0.1-0.4-0.1-0.4-0.3c0-0.1,0.1-0.2,0.4-0.3c1.3-0.5,1.4-1.6,1.4-3.6h-4.2
		c0,2,0.1,3.1,1.4,3.6c0.2,0.1,0.4,0.1,0.4,0.3c0,0.2-0.1,0.2-0.4,0.3c-1.3,0.5-1.4,1.6-1.4,3.6H37C37,40.7,36.8,39.5,35.6,39.1"/>
	<path class="st31" d="M35.1,42.7c0,0-0.1-3.3-0.1-3.9c0-0.1,0.3-0.4,0.5-0.4c0.6-0.3,1.4-1,1.4-1.6h-3.9c0,0.7,0.8,1.3,1.4,1.6
		c0.1,0.1,0.5,0.3,0.5,0.4c0,0.6-0.1,3.9-0.1,3.9H35.1"/>
	<g>
		<path class="st32" d="M39.7,44.3c0,0.2-0.2,0.4-0.4,0.4h-8.9c-0.2,0-0.4-0.2-0.4-0.4v-0.6c0-0.2,0.2-0.4,0.4-0.4h8.9
			c0.2,0,0.4,0.2,0.4,0.4L39.7,44.3"/>
		<path class="st32" d="M38.5,34.8c0,0.1-0.1,0.1-0.2,0.1h-6.9c-0.1,0-0.2-0.1-0.2-0.1v-0.4c0-0.1,0.1-0.1,0.2-0.1h6.9
			c0.1,0,0.2,0.1,0.2,0.1V34.8"/>
	</g>
	<path class="st33" d="M37.5,34.8c0,0.1-0.1,0.1-0.1,0.1h-4.9c-0.1,0-0.1-0.1-0.1-0.1v-0.4c0-0.1,0.1-0.1,0.1-0.1h4.9
		c0.1,0,0.1,0.1,0.1,0.1V34.8"/>
	<g>
		<path class="st32" d="M38.5,43.3c0,0.1-0.1,0.1-0.2,0.1h-6.9c-0.1,0-0.2-0.1-0.2-0.1v-0.4c0-0.1,0.1-0.1,0.2-0.1h6.9
			c0.1,0,0.2,0.1,0.2,0.1V43.3"/>
		<path class="st32" d="M39.7,33.8c0,0.2-0.2,0.4-0.4,0.4h-8.9c-0.2,0-0.4-0.2-0.4-0.4v-0.6c0-0.2,0.2-0.4,0.4-0.4h8.9
			c0.2,0,0.4,0.2,0.4,0.4L39.7,33.8"/>
	</g>
	<g>
		<path class="st33" d="M38.5,33.8c0,0.2-0.1,0.4-0.3,0.4h-6.6c-0.2,0-0.3-0.2-0.3-0.4v-0.6c0-0.2,0.1-0.4,0.3-0.4h6.7
			c0.1,0,0.3,0.2,0.3,0.4V33.8"/>
		<path class="st33" d="M38.5,44.3c0,0.2-0.1,0.4-0.3,0.4h-6.6c-0.2,0-0.3-0.2-0.3-0.4v-0.6c0-0.2,0.1-0.4,0.3-0.4h6.7
			c0.2,0,0.3,0.2,0.3,0.4C38.5,43.8,38.5,44.3,38.5,44.3"/>
	</g>
	<path class="st7" d="M30.9,34.2h0.2v9.2h-0.2V34.2z"/>
	<path class="st34" d="M30.7,34.2h0.2v9.2h-0.2V34.2z"/>
	<path class="st7" d="M38.9,34.2h0.2v9.2h-0.2V34.2z"/>
	<path class="st34" d="M38.7,34.2h0.2v9.2h-0.2V34.2z"/>
	<path class="st33" d="M37.5,43.3c0,0.1-0.1,0.1-0.1,0.1h-4.9c-0.1,0-0.1-0.1-0.1-0.1v-0.4c0-0.1,0.1-0.1,0.1-0.1h4.9
		c0.1,0,0.1,0.1,0.1,0.1V43.3"/>
</g>
<g transform="translate(1 1)">
	<path class="st35" d="M62.3,22c0,3.3-2.6,5.9-5.9,5.9c-3.3,0-5.9-2.6-5.9-5.9s2.6-5.9,5.9-5.9C59.7,16.1,62.3,18.7,62.3,22"/>
	<path class="st36" d="M56.4,16.1c-0.2,0-0.5,0-0.7,0c3,0.3,5.2,2.8,5.2,5.9s-2.3,5.5-5.2,5.9c0.2,0,0.5,0,0.7,0
		c3.3,0,5.9-2.6,5.9-5.9S59.7,16.1,56.4,16.1"/>
	<path class="st3" d="M56.4,16.1c0.2,0,0.5,0,0.7,0c-3,0.3-5.2,2.8-5.2,5.9s2.3,5.5,5.2,5.9c-0.2,0-0.5,0-0.7,0
		c-3.3,0-5.9-2.6-5.9-5.9S53.1,16.1,56.4,16.1"/>
	<path class="st37" d="M57.8,25.7c-0.2-0.1-0.4-0.3-0.4-0.6v-0.7c0,0,0.1-0.1,0.2-0.2c0.2-0.3,0.4-0.7,0.5-1c0.2,0,0.4-0.3,0.4-0.5
		V22c0-0.1-0.1-0.3-0.2-0.4v-1c0,0,0.2-1.6-2-1.6s-2,1.6-2,1.6v1c-0.1,0.1-0.2,0.2-0.2,0.4v0.7c0,0.2,0.1,0.4,0.2,0.5
		c0.2,0.8,0.6,1.3,0.6,1.3v0.6c0,0.2-0.1,0.5-0.3,0.6l-1.6,0.8c-0.1,0-0.2,0.1-0.3,0.2c1,0.7,2.2,1.1,3.5,1.1s2.5-0.4,3.5-1.1
		c-0.1-0.1-0.2-0.1-0.3-0.2L57.8,25.7z"/>
	<g>
		<path class="st35" d="M47.3,34.3c-0.3,0-0.5-0.2-0.5-0.5V32c0-0.3,0.2-0.5,0.5-0.5s0.5,0.2,0.5,0.5v1.8
			C47.7,34.1,47.6,34.3,47.3,34.3z"/>
		<path class="st35" d="M66.4,34.3c-0.3,0-0.5-0.2-0.5-0.5V32c0-0.3,0.2-0.5,0.5-0.5c0.3,0,0.5,0.2,0.5,0.5v1.8
			C66.8,34.1,66.7,34.3,66.4,34.3z"/>
		<path class="st35" d="M66.4,32.4H47.3c-0.3,0-0.5-0.2-0.5-0.5c0-0.3,0.2-0.5,0.5-0.5h19.1c0.3,0,0.5,0.2,0.5,0.5
			C66.8,32.3,66.7,32.4,66.4,32.4z"/>
		<path class="st35" d="M56.8,34.3c-0.3,0-0.5-0.2-0.5-0.5v-5.5c0-0.3,0.2-0.5,0.5-0.5s0.5,0.2,0.5,0.5v5.5
			C57.3,34.1,57.1,34.3,56.8,34.3z"/>
	</g>
	<g>
		<path class="st38" d="M48.2,36.5c0,0.8-0.6,1.4-1.4,1.4c-0.8,0-1.4-0.6-1.4-1.4s0.6-1.4,1.4-1.4C47.6,35.2,48.2,35.8,48.2,36.5"/>
		<path class="st38" d="M57.7,36.5c0,0.8-0.6,1.4-1.4,1.4c-0.8,0-1.4-0.6-1.4-1.4s0.6-1.4,1.4-1.4C57.2,35.2,57.7,35.8,57.7,36.5"/>
		<path class="st38" d="M67.3,36.5c0,0.8-0.6,1.4-1.4,1.4s-1.4-0.6-1.4-1.4s0.6-1.4,1.4-1.4C66.7,35.2,67.3,35.8,67.3,36.5"/>
		<path class="st38" d="M48.6,42.4H45v-0.9c0-1,0.8-1.8,1.8-1.8c1,0,1.8,0.8,1.8,1.8V42.4z"/>
		<path class="st38" d="M58.2,42.4h-3.6v-0.9c0-1,0.8-1.8,1.8-1.8c1,0,1.8,0.8,1.8,1.8L58.2,42.4L58.2,42.4z"/>
		<path class="st38" d="M67.7,42.4h-3.6v-0.9c0-1,0.8-1.8,1.8-1.8s1.8,0.8,1.8,1.8L67.7,42.4L67.7,42.4z"/>
	</g>
	<path d="M48.6,42.9H45c-0.3,0-0.5-0.2-0.5-0.5v-0.9c0-1.3,1-2.3,2.3-2.3s2.3,1,2.3,2.3v0.9C49.1,42.7,48.9,42.9,48.6,42.9z
		 M45.5,42h2.7v-0.5c0-0.8-0.6-1.4-1.4-1.4c-0.8,0-1.4,0.6-1.4,1.4C45.5,41.5,45.5,42,45.5,42z"/>
	<path d="M46.8,38.4c-1,0-1.8-0.8-1.8-1.8c0-1,0.8-1.8,1.8-1.8c1,0,1.8,0.8,1.8,1.8S47.8,38.4,46.8,38.4z M46.8,35.6
		c-0.5,0-0.9,0.4-0.9,0.9s0.4,0.9,0.9,0.9s0.9-0.4,0.9-0.9C47.7,36,47.3,35.6,46.8,35.6z"/>
	<path d="M58.2,42.9h-3.6c-0.3,0-0.5-0.2-0.5-0.5v-0.9c0-1.3,1-2.3,2.3-2.3c1.3,0,2.3,1,2.3,2.3v0.9C58.7,42.7,58.5,42.9,58.2,42.9z
		 M55,42h2.7v-0.5c0-0.8-0.6-1.4-1.4-1.4c-0.8,0-1.4,0.6-1.4,1.4V42z"/>
	<path d="M56.4,38.4c-1,0-1.8-0.8-1.8-1.8c0-1,0.8-1.8,1.8-1.8c1,0,1.8,0.8,1.8,1.8S57.4,38.4,56.4,38.4z M56.4,35.6
		c-0.5,0-0.9,0.4-0.9,0.9s0.4,0.9,0.9,0.9c0.5,0,0.9-0.4,0.9-0.9C57.3,36,56.9,35.6,56.4,35.6z"/>
	<path d="M67.7,42.9h-3.6c-0.3,0-0.5-0.2-0.5-0.5v-0.9c0-1.3,1-2.3,2.3-2.3c1.3,0,2.3,1,2.3,2.3v0.9C68.2,42.7,68,42.9,67.7,42.9z
		 M64.6,42h2.7v-0.5c0-0.8-0.6-1.4-1.4-1.4s-1.4,0.6-1.4,1.4V42z"/>
	<path d="M65.9,38.4c-1,0-1.8-0.8-1.8-1.8c0-1,0.8-1.8,1.8-1.8s1.8,0.8,1.8,1.8S66.9,38.4,65.9,38.4z M65.9,35.6
		c-0.5,0-0.9,0.4-0.9,0.9s0.4,0.9,0.9,0.9s0.9-0.4,0.9-0.9S66.4,35.6,65.9,35.6z"/>
	<path d="M46.8,33.8c-0.3,0-0.5-0.2-0.5-0.5v-1.8c0-0.3,0.2-0.5,0.5-0.5c0.3,0,0.5,0.2,0.5,0.5v1.8C47.3,33.6,47.1,33.8,46.8,33.8z"
		/>
	<path d="M65.9,33.8c-0.3,0-0.5-0.2-0.5-0.5v-1.8c0-0.3,0.2-0.5,0.5-0.5s0.5,0.2,0.5,0.5v1.8C66.4,33.6,66.2,33.8,65.9,33.8z"/>
	<path d="M65.9,32H46.8c-0.3,0-0.5-0.2-0.5-0.5c0-0.3,0.2-0.5,0.5-0.5h19.1c0.3,0,0.5,0.2,0.5,0.5C66.4,31.8,66.2,32,65.9,32z"/>
	<path d="M56.4,33.8c-0.3,0-0.5-0.2-0.5-0.5v-5.5c0-0.3,0.2-0.5,0.5-0.5c0.3,0,0.5,0.2,0.5,0.5v5.5C56.8,33.6,56.7,33.8,56.4,33.8z"
		/>
	<path d="M56.4,28.3c-3.5,0-6.4-2.9-6.4-6.4s2.9-6.4,6.4-6.4c3.5,0,6.4,2.9,6.4,6.4S59.9,28.3,56.4,28.3z M56.4,16.5
		c-3,0-5.5,2.5-5.5,5.5s2.5,5.5,5.5,5.5c3,0,5.5-2.5,5.5-5.5S59.4,16.5,56.4,16.5z"/>
	<path d="M56.4,28.3c-1.4,0-2.6-0.4-3.7-1.2l-0.5-0.3l0.4-0.4c0.1-0.1,0.3-0.2,0.4-0.3l1.6-0.9c0,0,0.1-0.1,0.1-0.2v-0.5
		c-0.1-0.2-0.5-0.7-0.6-1.2c-0.2-0.2-0.3-0.5-0.3-0.7V22c0-0.2,0-0.4,0.2-0.5v-0.9c0-0.2,0-0.8,0.5-1.4c0.4-0.5,1.1-0.7,2-0.7
		c0.9,0,1.5,0.2,2,0.7c0.5,0.5,0.5,1.2,0.5,1.4v0.8c0.1,0.2,0.2,0.4,0.2,0.5v0.7c0,0.4-0.2,0.7-0.5,0.8c-0.1,0.4-0.3,0.7-0.5,1
		c0,0,0,0.1-0.1,0.1v0.5c0,0.1,0,0.1,0.1,0.2l1.7,0.9c0.1,0.1,0.3,0.2,0.4,0.3l0.4,0.4l-0.5,0.3C59,27.9,57.7,28.3,56.4,28.3z
		 M53.8,26.8c1.6,0.9,3.6,0.9,5.2,0l-1.3-0.7c-0.4-0.2-0.6-0.5-0.6-1v-0.8l0.1-0.1c0,0,0.1-0.1,0.1-0.2c0.2-0.3,0.4-0.6,0.5-1
		l0.1-0.2l0.2-0.1c0,0,0,0,0-0.1V22c0,0,0,0,0,0l-0.1-0.1v-1.3c0,0,0-0.4-0.2-0.7c-0.2-0.3-0.7-0.4-1.3-0.4s-1,0.1-1.3,0.4
		c-0.3,0.3-0.2,0.7-0.2,0.7v0v1.2l-0.1,0.1l0,0v0.7c0,0,0,0,0,0l0.1,0.1l0,0.2c0.1,0.6,0.5,1.1,0.5,1.1l0.1,0.1v0.8
		c0,0.4-0.2,0.8-0.6,1L53.8,26.8z"/>
</g>
</svg>
