<?xml version="1.0" encoding="utf-8"?>
<!-- Generator: Adobe Illustrator 26.0.1, SVG Export Plug-In . SVG Version: 6.00 Build 0)  -->
<svg version="1.1" id="Layer_1" xmlns="http://www.w3.org/2000/svg" xmlns:xlink="http://www.w3.org/1999/xlink" x="0px" y="0px"
	 viewBox="0 0 80 80" style="enable-background:new 0 0 80 80;" xml:space="preserve">
<style type="text/css">
	.st0{fill:#FBD24E;}
	.st1{fill:#EDB935;}
	.st2{fill:#676767;}
	.st3{fill:#FFFFFF;}
	.st4{fill:#B7B6B8;}
	.st5{fill:#C2C2C4;}
	.st6{fill:#EDF0F1;}
	.st7{fill:#919191;}
	.st8{fill:#49C1BA;}
	.st9{fill:#F15D64;}
	.st10{fill:#DCE3DA;}
</style>
<circle class="st0" cx="40" cy="39.92" r="39.47"/>
<ellipse class="st1" cx="40" cy="65.46" rx="28.1" ry="2.22"/>
<path class="st2" d="M10.7,10.82H69.3c1.93,0,3.5,1.58,3.5,3.5v36.1H7.2v-36.1C7.2,12.39,8.78,10.82,10.7,10.82L10.7,10.82
	L10.7,10.82z"/>
<g>
	<path class="st3" d="M9.58,48.04h60.84V14.32c0-0.61-0.51-1.12-1.12-1.12H10.7c-0.61,0-1.12,0.51-1.12,1.12L9.58,48.04L9.58,48.04z
		"/>
	<path class="st3" d="M72.8,50.41v3.83c0,1.93-1.74,3.5-3.86,3.5H11.06c-2.12,0-3.86-1.57-3.86-3.5v-3.83H72.8L72.8,50.41z"/>
</g>
<circle class="st4" cx="40" cy="53.92" r="1.21"/>
<path class="st5" d="M47.57,63.25l5.57,1.78H26.87l4.49-1.78v-5.51h16.21L47.57,63.25L47.57,63.25z"/>
<path class="st6" d="M31.36,63.25h16.21l5.57,1.78v0.77H40H26.87v-0.77L31.36,63.25z"/>
<path class="st7" d="M31.36,57.74h16.21v5.51L31.36,57.74z"/>
<rect x="12.22" y="15.48" class="st8" width="6.28" height="1.08"/>
<rect x="19.23" y="15.48" class="st9" width="11.14" height="1.08"/>
<g>
	<rect x="30.91" y="15.48" class="st0" width="9.49" height="1.08"/>
	<rect x="18.82" y="19.93" class="st0" width="3.33" height="1.08"/>
</g>
<rect x="22.54" y="19.93" class="st9" width="5.91" height="1.08"/>
<g>
	<rect x="28.74" y="19.93" class="st8" width="5.03" height="1.08"/>
	<rect x="12.18" y="21.84" class="st8" width="5.86" height="1.08"/>
</g>
<rect x="18.72" y="21.84" class="st0" width="10.38" height="1.08"/>
<rect x="18.44" y="24.11" class="st9" width="5.86" height="1.08"/>
<rect x="24.97" y="24.11" class="st8" width="10.38" height="1.08"/>
<rect x="13.23" y="26.28" class="st0" width="5.86" height="1.08"/>
<rect x="19.86" y="26.28" class="st8" width="4.19" height="1.08"/>
<rect x="25.03" y="26.28" class="st9" width="11.77" height="1.08"/>
<g>
	<rect x="37.66" y="26.28" class="st8" width="4.19" height="1.08"/>
	<rect x="11.98" y="28.55" class="st8" width="15.67" height="1.08"/>
</g>
<rect x="28.33" y="28.55" class="st0" width="4.19" height="1.08"/>
<rect x="33.12" y="28.55" class="st9" width="5.86" height="1.08"/>
<g>
	<rect x="19.09" y="17.58" class="st3" width="0.43" height="1.3"/>
	<rect x="30.32" y="21.84" class="st3" width="0.43" height="1.3"/>
</g>
<rect x="12.22" y="31.75" class="st8" width="6.28" height="1.08"/>
<rect x="19.23" y="31.75" class="st9" width="11.14" height="1.08"/>
<g>
	<rect x="30.91" y="31.75" class="st0" width="9.49" height="1.08"/>
	<rect x="18.82" y="36.2" class="st0" width="3.33" height="1.08"/>
</g>
<rect x="22.54" y="36.2" class="st9" width="5.91" height="1.08"/>
<g>
	<rect x="28.74" y="36.2" class="st8" width="5.03" height="1.08"/>
	<rect x="12.18" y="38.1" class="st8" width="5.86" height="1.08"/>
</g>
<rect x="18.72" y="38.1" class="st0" width="10.38" height="1.08"/>
<g>
	<rect x="19.09" y="33.84" class="st3" width="0.43" height="1.3"/>
	<rect x="30.32" y="38.1" class="st3" width="0.43" height="1.3"/>
</g>
<g>
	<rect x="45.28" y="15.48" class="st10" width="22.72" height="5.24"/>
	<path class="st10" d="M45.28,21.47H56.1v6.92H45.28V21.47z"/>
	<path class="st10" d="M57.18,21.47H68v6.92H57.18V21.47z"/>
	<path class="st10" d="M45.31,29.37h22.66v0.33H45.31V29.37z M45.31,32.54h14.88v0.33H45.31V32.54z M45.31,31.48h22.66v0.33H45.31
		V31.48z M45.31,30.43h22.66v0.33H45.31V30.43z"/>
	<path class="st10" d="M45.25,33.7H52v6.69h-6.75V33.7z M61.27,33.7h6.75v6.69h-6.75V33.7z M53.26,33.7h6.75v6.69h-6.75V33.7z"/>
	<path class="st10" d="M45.31,41.32h22.66v0.33H45.31V41.32z M45.31,44.49h14.88v0.33H45.31V44.49z M45.31,43.43h22.66v0.33H45.31
		V43.43z M45.31,42.38h22.66v0.33H45.31V42.38z"/>
</g>
</svg>
